<svg class="typst-doc" viewBox="0 0 128 128" width="128pt" height="128pt" xmlns="http://www.w3.org/2000/svg" xmlns:xlink="http://www.w3.org/1999/xlink" xmlns:h5="http://www.w3.org/1999/xhtml">
    <g>
        <g class="typst-group">
            <g>
                <path class="typst-shape" fill="#3e2723" fill-rule="nonzero" d="M 0 0m 40 0 h 8 v 8 h -8 Z m 8 0 h 8 v 8 h -8 Z m 8 0 h 8 v 8 h -8 Z m 8 0 h 8 v 8 h -8 Z m 8 0 h 8 v 8 h -8 Z m -48 8 h 8 v 8 h -8 Z m 8 0 h 8 v 8 h -8 Z m 8 0 h 8 v 8 h -8 Z m 8 0 h 8 v 8 h -8 Z m 8 0 h 8 v 8 h -8 Z m 8 0 h 8 v 8 h -8 Z m 8 0 h 8 v 8 h -8 Z m 8 0 h 8 v 8 h -8 Z m -56 8 h 8 v 8 h -8 Z m 8 0 h 8 v 8 h -8 Z m 8 0 h 8 v 8 h -8 Z m 8 0 h 8 v 8 h -8 Z m 8 0 h 8 v 8 h -8 Z m 8 0 h 8 v 8 h -8 Z m 8 0 h 8 v 8 h -8 Z m 8 0 h 8 v 8 h -8 Z m 8 0 h 8 v 8 h -8 Z m -64 8 h 8 v 8 h -8 Z m 32 0 h 8 v 8 h -8 Z m 32 0 h 8 v 8 h -8 Z m -64 8 h 8 v 8 h -8 Z m 64 0 h 8 v 8 h -8 Z "/>
                <path class="typst-shape" fill="#7b1fa2" fill-rule="nonzero" d="M 0 0m 32 24 h 8 v 8 h -8 Z m 8 0 h 8 v 8 h -8 Z m 8 0 h 8 v 8 h -8 Z m 16 0 h 8 v 8 h -8 Z m 8 0 h 8 v 8 h -8 Z m 8 0 h 8 v 8 h -8 Z "/>
                <path class="typst-shape" fill="#e8b8a0" fill-rule="nonzero" d="M 0 0m 32 32 h 8 v 8 h -8 Z m 8 0 h 8 v 8 h -8 Z m 8 0 h 8 v 8 h -8 Z m 8 0 h 8 v 8 h -8 Z m 8 0 h 8 v 8 h -8 Z m 8 0 h 8 v 8 h -8 Z m 8 0 h 8 v 8 h -8 Z m -48 8 h 8 v 8 h -8 Z m 16 0 h 8 v 8 h -8 Z m 8 0 h 8 v 8 h -8 Z m 8 0 h 8 v 8 h -8 Z m 16 0 h 8 v 8 h -8 Z m -48 8 h 8 v 8 h -8 Z m 8 0 h 8 v 8 h -8 Z m 8 0 h 8 v 8 h -8 Z m 8 0 h 8 v 8 h -8 Z m 8 0 h 8 v 8 h -8 Z m 8 0 h 8 v 8 h -8 Z m 8 0 h 8 v 8 h -8 Z m -48 8 h 8 v 8 h -8 Z m 8 0 h 8 v 8 h -8 Z m 24 0 h 8 v 8 h -8 Z m 8 0 h 8 v 8 h -8 Z m 8 0 h 8 v 8 h -8 Z m -40 8 h 8 v 8 h -8 Z m 8 0 h 8 v 8 h -8 Z m 8 0 h 8 v 8 h -8 Z m 8 0 h 8 v 8 h -8 Z m 8 0 h 8 v 8 h -8 Z m -24 8 h 8 v 8 h -8 Z m 8 0 h 8 v 8 h -8 Z m 8 0 h 8 v 8 h -8 Z m -48 16 h 8 v 8 h -8 Z m 80 0 h 8 v 8 h -8 Z "/>
                <path class="typst-shape" fill="#2c3e50" fill-rule="nonzero" d="M 0 0m 40 40 h 8 v 8 h -8 Z m 32 0 h 8 v 8 h -8 Z m -24 16 h 8 v 8 h -8 Z m 8 0 h 8 v 8 h -8 Z "/>
                <path class="typst-shape" fill="#ecf0f1" fill-rule="nonzero" d="M 0 0m 24 80 h 8 v 8 h -8 Z m 8 0 h 8 v 8 h -8 Z m 8 0 h 8 v 8 h -8 Z m 8 0 h 8 v 8 h -8 Z m 8 0 h 8 v 8 h -8 Z m 8 0 h 8 v 8 h -8 Z m 8 0 h 8 v 8 h -8 Z m 8 0 h 8 v 8 h -8 Z m 8 0 h 8 v 8 h -8 Z m -64 8 h 8 v 8 h -8 Z m 8 0 h 8 v 8 h -8 Z m 48 0 h 8 v 8 h -8 Z m 8 0 h 8 v 8 h -8 Z m -64 8 h 8 v 8 h -8 Z m 8 0 h 8 v 8 h -8 Z m 48 0 h 8 v 8 h -8 Z m 8 0 h 8 v 8 h -8 Z m -64 8 h 8 v 8 h -8 Z m 8 0 h 8 v 8 h -8 Z m 48 0 h 8 v 8 h -8 Z m 8 0 h 8 v 8 h -8 Z m -56 8 h 8 v 8 h -8 Z m 8 0 h 8 v 8 h -8 Z m 8 0 h 8 v 8 h -8 Z m 8 0 h 8 v 8 h -8 Z m 8 0 h 8 v 8 h -8 Z m 8 0 h 8 v 8 h -8 Z m 8 0 h 8 v 8 h -8 Z m -40 8 h 8 v 8 h -8 Z m 8 0 h 8 v 8 h -8 Z m 8 0 h 8 v 8 h -8 Z m 8 0 h 8 v 8 h -8 Z m 8 0 h 8 v 8 h -8 Z "/>
                <path class="typst-shape" fill="#2c3e50" fill-rule="nonzero" d="M 0 0m 40 88 h 8 v 8 h -8 Z m 8 0 h 8 v 8 h -8 Z m 8 0 h 8 v 8 h -8 Z m 8 0 h 8 v 8 h -8 Z m 8 0 h 8 v 8 h -8 Z m -32 8 h 8 v 8 h -8 Z m 8 0 h 8 v 8 h -8 Z m 8 0 h 8 v 8 h -8 Z m 8 0 h 8 v 8 h -8 Z m 8 0 h 8 v 8 h -8 Z m -32 8 h 8 v 8 h -8 Z m 16 0 h 8 v 8 h -8 Z m 8 0 h 8 v 8 h -8 Z m 8 0 h 8 v 8 h -8 Z "/>
                <path class="typst-shape" fill="#00bcd4" fill-rule="nonzero" d="M 0 0m 48 104 h 8 v 8 h -8 Z "/>
            </g>
        </g>
    </g>
</svg>
