<svg class="typst-doc" viewBox="0 0 128 128" width="128pt" height="128pt" xmlns="http://www.w3.org/2000/svg" xmlns:xlink="http://www.w3.org/1999/xlink" xmlns:h5="http://www.w3.org/1999/xhtml">
    <g>
        <g class="typst-group">
            <g>
                <path class="typst-shape" fill="#1b5e20" fill-rule="nonzero" d="M 0 0m 16 0 h 8 v 8 h -8 Z m 72 0 h 8 v 8 h -8 Z m -64 8 h 8 v 8 h -8 Z m 64 0 h 8 v 8 h -8 Z m -56 8 h 8 v 8 h -8 Z m 48 0 h 8 v 8 h -8 Z "/>
                <path class="typst-shape" fill="#2e7d32" fill-rule="nonzero" d="M 0 0m 48 8 h 8 v 8 h -8 Z m 8 0 h 8 v 8 h -8 Z m 8 0 h 8 v 8 h -8 Z m -24 8 h 8 v 8 h -8 Z m 8 0 h 8 v 8 h -8 Z m 8 0 h 8 v 8 h -8 Z m 8 0 h 8 v 8 h -8 Z m 8 0 h 8 v 8 h -8 Z m -40 8 h 8 v 8 h -8 Z m 8 0 h 8 v 8 h -8 Z m 8 0 h 8 v 8 h -8 Z m 8 0 h 8 v 8 h -8 Z m 8 0 h 8 v 8 h -8 Z m 8 0 h 8 v 8 h -8 Z m 8 0 h 8 v 8 h -8 Z m -56 8 h 8 v 8 h -8 Z m 8 0 h 8 v 8 h -8 Z m 16 0 h 8 v 8 h -8 Z m 8 0 h 8 v 8 h -8 Z m 8 0 h 8 v 8 h -8 Z m 16 0 h 8 v 8 h -8 Z m 8 0 h 8 v 8 h -8 Z m -64 8 h 8 v 8 h -8 Z m 8 0 h 8 v 8 h -8 Z m 16 0 h 8 v 8 h -8 Z m 8 0 h 8 v 8 h -8 Z m 8 0 h 8 v 8 h -8 Z m 16 0 h 8 v 8 h -8 Z m 8 0 h 8 v 8 h -8 Z m -64 8 h 8 v 8 h -8 Z m 8 0 h 8 v 8 h -8 Z m 8 0 h 8 v 8 h -8 Z m 8 0 h 8 v 8 h -8 Z m 8 0 h 8 v 8 h -8 Z m 8 0 h 8 v 8 h -8 Z m 8 0 h 8 v 8 h -8 Z m 8 0 h 8 v 8 h -8 Z m 8 0 h 8 v 8 h -8 Z m -56 8 h 8 v 8 h -8 Z m 8 0 h 8 v 8 h -8 Z m 32 0 h 8 v 8 h -8 Z m 8 0 h 8 v 8 h -8 Z m -40 8 h 8 v 8 h -8 Z m 8 0 h 8 v 8 h -8 Z m 8 0 h 8 v 8 h -8 Z m 8 0 h 8 v 8 h -8 Z m 8 0 h 8 v 8 h -8 Z m -32 8 h 8 v 8 h -8 Z m 8 0 h 8 v 8 h -8 Z m 8 0 h 8 v 8 h -8 Z m 8 0 h 8 v 8 h -8 Z m 8 0 h 8 v 8 h -8 Z m -48 8 h 8 v 8 h -8 Z m 8 0 h 8 v 8 h -8 Z m 16 0 h 8 v 8 h -8 Z m 16 0 h 8 v 8 h -8 Z m 16 0 h 8 v 8 h -8 Z m 8 0 h 8 v 8 h -8 Z m -56 8 h 8 v 8 h -8 Z m 8 0 h 8 v 8 h -8 Z m 32 0 h 8 v 8 h -8 Z m 8 0 h 8 v 8 h -8 Z m -48 8 h 8 v 8 h -8 Z m 16 0 h 8 v 8 h -8 Z m 16 0 h 8 v 8 h -8 Z m 16 0 h 8 v 8 h -8 Z m -40 8 h 8 v 8 h -8 Z m 32 0 h 8 v 8 h -8 Z m -24 8 h 8 v 8 h -8 Z m 8 0 h 8 v 8 h -8 Z m 8 0 h 8 v 8 h -8 Z m -8 8 h 8 v 8 h -8 Z "/>
                <path class="typst-shape" fill="#000000" fill-rule="nonzero" d="M 0 0m 40 32 h 8 v 8 h -8 Z m 32 0 h 8 v 8 h -8 Z m -32 48 h 8 v 8 h -8 Z m 16 0 h 8 v 8 h -8 Z m 16 0 h 8 v 8 h -8 Z m -32 16 h 8 v 8 h -8 Z m 16 0 h 8 v 8 h -8 Z m 16 0 h 8 v 8 h -8 Z "/>
                <path class="typst-shape" fill="#000000" fill-rule="nonzero" d="M 0 0m 40 40 h 8 v 8 h -8 Z m 32 0 h 8 v 8 h -8 Z "/>
                <path class="typst-shape" fill="#ffd700" fill-rule="nonzero" d="M 0 0m 8 48 h 8 v 8 h -8 Z m 8 0 h 8 v 8 h -8 Z m 80 0 h 8 v 8 h -8 Z m 8 0 h 8 v 8 h -8 Z "/>
                <path class="typst-shape" fill="#a5d6a7" fill-rule="nonzero" d="M 0 0m 48 56 h 8 v 8 h -8 Z m 8 0 h 8 v 8 h -8 Z m 8 0 h 8 v 8 h -8 Z m -16 32 h 8 v 8 h -8 Z m 8 0 h 8 v 8 h -8 Z m 8 0 h 8 v 8 h -8 Z m -16 16 h 8 v 8 h -8 Z m 8 0 h 8 v 8 h -8 Z m 8 0 h 8 v 8 h -8 Z "/>
            </g>
        </g>
    </g>
</svg>
