<svg class="typst-doc" viewBox="0 0 128 128" width="128pt" height="128pt" xmlns="http://www.w3.org/2000/svg" xmlns:xlink="http://www.w3.org/1999/xlink" xmlns:h5="http://www.w3.org/1999/xhtml">
    <g>
        <g class="typst-group">
            <g>
                <path class="typst-shape" fill="#fafafa" fill-rule="nonzero" d="M 0 0m 40 0 h 8 v 8 h -8 Z m 8 0 h 8 v 8 h -8 Z m 8 0 h 8 v 8 h -8 Z m 8 0 h 8 v 8 h -8 Z m 8 0 h 8 v 8 h -8 Z m -40 8 h 8 v 8 h -8 Z m 8 0 h 8 v 8 h -8 Z m 8 0 h 8 v 8 h -8 Z m 8 0 h 8 v 8 h -8 Z m 8 0 h 8 v 8 h -8 Z m 8 0 h 8 v 8 h -8 Z m 8 0 h 8 v 8 h -8 Z m -56 8 h 8 v 8 h -8 Z m 8 0 h 8 v 8 h -8 Z m 8 0 h 8 v 8 h -8 Z m 8 0 h 8 v 8 h -8 Z m 8 0 h 8 v 8 h -8 Z m 8 0 h 8 v 8 h -8 Z m 8 0 h 8 v 8 h -8 Z m 8 0 h 8 v 8 h -8 Z m 8 0 h 8 v 8 h -8 Z m -72 8 h 8 v 8 h -8 Z m 8 0 h 8 v 8 h -8 Z m 8 0 h 8 v 8 h -8 Z m 8 0 h 8 v 8 h -8 Z m 8 0 h 8 v 8 h -8 Z m 8 0 h 8 v 8 h -8 Z m 8 0 h 8 v 8 h -8 Z m 8 0 h 8 v 8 h -8 Z m 8 0 h 8 v 8 h -8 Z m 8 0 h 8 v 8 h -8 Z m 8 0 h 8 v 8 h -8 Z m -80 8 h 8 v 8 h -8 Z m 8 0 h 8 v 8 h -8 Z m 8 0 h 8 v 8 h -8 Z m 16 0 h 8 v 8 h -8 Z m 8 0 h 8 v 8 h -8 Z m 8 0 h 8 v 8 h -8 Z m 16 0 h 8 v 8 h -8 Z m 8 0 h 8 v 8 h -8 Z m 8 0 h 8 v 8 h -8 Z m -80 8 h 8 v 8 h -8 Z m 8 0 h 8 v 8 h -8 Z m 8 0 h 8 v 8 h -8 Z m 8 0 h 8 v 8 h -8 Z m 8 0 h 8 v 8 h -8 Z m 16 0 h 8 v 8 h -8 Z m 8 0 h 8 v 8 h -8 Z m 8 0 h 8 v 8 h -8 Z m 8 0 h 8 v 8 h -8 Z m 8 0 h 8 v 8 h -8 Z m -80 8 h 8 v 8 h -8 Z m 8 0 h 8 v 8 h -8 Z m 8 0 h 8 v 8 h -8 Z m 8 0 h 8 v 8 h -8 Z m 8 0 h 8 v 8 h -8 Z m 8 0 h 8 v 8 h -8 Z m 8 0 h 8 v 8 h -8 Z m 8 0 h 8 v 8 h -8 Z m 8 0 h 8 v 8 h -8 Z m 8 0 h 8 v 8 h -8 Z m 8 0 h 8 v 8 h -8 Z m -72 8 h 8 v 8 h -8 Z m 8 0 h 8 v 8 h -8 Z m 8 0 h 8 v 8 h -8 Z m 8 0 h 8 v 8 h -8 Z m 8 0 h 8 v 8 h -8 Z m 8 0 h 8 v 8 h -8 Z m 8 0 h 8 v 8 h -8 Z m 8 0 h 8 v 8 h -8 Z m 8 0 h 8 v 8 h -8 Z "/>
                <path class="typst-shape" fill="#000000" fill-rule="nonzero" d="M 0 0m 40 32 h 8 v 8 h -8 Z m 32 0 h 8 v 8 h -8 Z m -24 80 h 8 v 8 h -8 Z m 16 0 h 8 v 8 h -8 Z "/>
                <path class="typst-shape" fill="#e67e22" fill-rule="nonzero" d="M 0 0m 56 40 h 8 v 8 h -8 Z "/>
                <path class="typst-shape" fill="#555555" fill-rule="nonzero" d="M 0 0m 16 56 h 8 v 8 h -8 Z m 80 0 h 8 v 8 h -8 Z m -88 8 h 8 v 8 h -8 Z m 8 0 h 8 v 8 h -8 Z m 8 0 h 8 v 8 h -8 Z m 64 0 h 8 v 8 h -8 Z m 8 0 h 8 v 8 h -8 Z m 8 0 h 8 v 8 h -8 Z m -96 8 h 8 v 8 h -8 Z m 8 0 h 8 v 8 h -8 Z m 80 0 h 8 v 8 h -8 Z m 8 0 h 8 v 8 h -8 Z m -88 8 h 8 v 8 h -8 Z m 80 0 h 8 v 8 h -8 Z m -80 8 h 8 v 8 h -8 Z m 8 0 h 8 v 8 h -8 Z m 64 0 h 8 v 8 h -8 Z m 8 0 h 8 v 8 h -8 Z m -72 8 h 8 v 8 h -8 Z m 8 0 h 8 v 8 h -8 Z m 48 0 h 8 v 8 h -8 Z m 8 0 h 8 v 8 h -8 Z m -56 8 h 8 v 8 h -8 Z m 8 0 h 8 v 8 h -8 Z m 8 0 h 8 v 8 h -8 Z m 8 0 h 8 v 8 h -8 Z m 8 0 h 8 v 8 h -8 Z m 8 0 h 8 v 8 h -8 Z m 8 0 h 8 v 8 h -8 Z "/>
                <path class="typst-shape" fill="#e8e8e8" fill-rule="nonzero" d="M 0 0m 32 64 h 8 v 8 h -8 Z m 8 0 h 8 v 8 h -8 Z m 8 0 h 8 v 8 h -8 Z m 8 0 h 8 v 8 h -8 Z m 8 0 h 8 v 8 h -8 Z m 8 0 h 8 v 8 h -8 Z m 8 0 h 8 v 8 h -8 Z m -56 8 h 8 v 8 h -8 Z m 8 0 h 8 v 8 h -8 Z m 8 0 h 8 v 8 h -8 Z m 8 0 h 8 v 8 h -8 Z m 8 0 h 8 v 8 h -8 Z m 8 0 h 8 v 8 h -8 Z m 8 0 h 8 v 8 h -8 Z m 8 0 h 8 v 8 h -8 Z m 8 0 h 8 v 8 h -8 Z m -64 8 h 8 v 8 h -8 Z m 8 0 h 8 v 8 h -8 Z m 8 0 h 8 v 8 h -8 Z m 8 0 h 8 v 8 h -8 Z m 8 0 h 8 v 8 h -8 Z m 8 0 h 8 v 8 h -8 Z m 8 0 h 8 v 8 h -8 Z m 8 0 h 8 v 8 h -8 Z m 8 0 h 8 v 8 h -8 Z m -56 8 h 8 v 8 h -8 Z m 8 0 h 8 v 8 h -8 Z m 8 0 h 8 v 8 h -8 Z m 8 0 h 8 v 8 h -8 Z m 8 0 h 8 v 8 h -8 Z m 8 0 h 8 v 8 h -8 Z m 8 0 h 8 v 8 h -8 Z m -40 8 h 8 v 8 h -8 Z m 8 0 h 8 v 8 h -8 Z m 8 0 h 8 v 8 h -8 Z m 8 0 h 8 v 8 h -8 Z m 8 0 h 8 v 8 h -8 Z "/>
            </g>
        </g>
    </g>
</svg>
