<svg class="typst-doc" viewBox="0 0 128 128" width="128pt" height="128pt" xmlns="http://www.w3.org/2000/svg" xmlns:xlink="http://www.w3.org/1999/xlink" xmlns:h5="http://www.w3.org/1999/xhtml">
    <path class="typst-shape" fill="#ffffff" fill-rule="nonzero" d="M 0 0v 128 h 128 v -128 Z "/>
    <g>
        <g class="typst-group" transform="matrix(1 0 0 1 20 0)">
            <g>
                <g class="typst-group">
                    <g>
                        <path class="typst-shape" fill="#000000" fill-rule="nonzero" transform="matrix(1 0 0 1 32 0)" d="M 0 0v 8 h 8 v -8 h -8 Z "/>
                        <path class="typst-shape" fill="#000000" fill-rule="nonzero" transform="matrix(1 0 0 1 40 0)" d="M 0 0v 8 h 8 v -8 h -8 Z "/>
                        <path class="typst-shape" fill="#000000" fill-rule="nonzero" transform="matrix(1 0 0 1 48 0)" d="M 0 0v 8 h 8 v -8 h -8 Z "/>
                        <path class="typst-shape" fill="#000000" fill-rule="nonzero" transform="matrix(1 0 0 1 24 8)" d="M 0 0v 8 h 8 v -8 h -8 Z "/>
                        <path class="typst-shape" fill="#000000" fill-rule="nonzero" transform="matrix(1 0 0 1 32 8)" d="M 0 0v 8 h 8 v -8 h -8 Z "/>
                        <path class="typst-shape" fill="#000000" fill-rule="nonzero" transform="matrix(1 0 0 1 40 8)" d="M 0 0v 8 h 8 v -8 h -8 Z "/>
                        <path class="typst-shape" fill="#000000" fill-rule="nonzero" transform="matrix(1 0 0 1 48 8)" d="M 0 0v 8 h 8 v -8 h -8 Z "/>
                        <path class="typst-shape" fill="#000000" fill-rule="nonzero" transform="matrix(1 0 0 1 56 8)" d="M 0 0v 8 h 8 v -8 h -8 Z "/>
                        <path class="typst-shape" fill="#000000" fill-rule="nonzero" transform="matrix(1 0 0 1 16 16)" d="M 0 0v 8 h 8 v -8 h -8 Z "/>
                        <path class="typst-shape" fill="#000000" fill-rule="nonzero" transform="matrix(1 0 0 1 24 16)" d="M 0 0v 8 h 8 v -8 h -8 Z "/>
                        <path class="typst-shape" fill="#000000" fill-rule="nonzero" transform="matrix(1 0 0 1 32 16)" d="M 0 0v 8 h 8 v -8 h -8 Z "/>
                        <path class="typst-shape" fill="#000000" fill-rule="nonzero" transform="matrix(1 0 0 1 40 16)" d="M 0 0v 8 h 8 v -8 h -8 Z "/>
                        <path class="typst-shape" fill="#000000" fill-rule="nonzero" transform="matrix(1 0 0 1 48 16)" d="M 0 0v 8 h 8 v -8 h -8 Z "/>
                        <path class="typst-shape" fill="#000000" fill-rule="nonzero" transform="matrix(1 0 0 1 56 16)" d="M 0 0v 8 h 8 v -8 h -8 Z "/>
                        <path class="typst-shape" fill="#000000" fill-rule="nonzero" transform="matrix(1 0 0 1 64 16)" d="M 0 0v 8 h 8 v -8 h -8 Z "/>
                        <path class="typst-shape" fill="#000000" fill-rule="nonzero" transform="matrix(1 0 0 1 8 24)" d="M 0 0v 8 h 8 v -8 h -8 Z "/>
                        <path class="typst-shape" fill="#000000" fill-rule="nonzero" transform="matrix(1 0 0 1 16 24)" d="M 0 0v 8 h 8 v -8 h -8 Z "/>
                        <path class="typst-shape" fill="#000000" fill-rule="nonzero" transform="matrix(1 0 0 1 24 24)" d="M 0 0v 8 h 8 v -8 h -8 Z "/>
                        <path class="typst-shape" fill="#000000" fill-rule="nonzero" transform="matrix(1 0 0 1 32 24)" d="M 0 0v 8 h 8 v -8 h -8 Z "/>
                        <path class="typst-shape" fill="#000000" fill-rule="nonzero" transform="matrix(1 0 0 1 40 24)" d="M 0 0v 8 h 8 v -8 h -8 Z "/>
                        <path class="typst-shape" fill="#000000" fill-rule="nonzero" transform="matrix(1 0 0 1 48 24)" d="M 0 0v 8 h 8 v -8 h -8 Z "/>
                        <path class="typst-shape" fill="#000000" fill-rule="nonzero" transform="matrix(1 0 0 1 56 24)" d="M 0 0v 8 h 8 v -8 h -8 Z "/>
                        <path class="typst-shape" fill="#000000" fill-rule="nonzero" transform="matrix(1 0 0 1 64 24)" d="M 0 0v 8 h 8 v -8 h -8 Z "/>
                        <path class="typst-shape" fill="#000000" fill-rule="nonzero" transform="matrix(1 0 0 1 72 24)" d="M 0 0v 8 h 8 v -8 h -8 Z "/>
                        <path class="typst-shape" fill="#000000" fill-rule="nonzero" transform="matrix(1 0 0 1 8 32)" d="M 0 0v 8 h 8 v -8 h -8 Z "/>
                        <path class="typst-shape" fill="#000000" fill-rule="nonzero" transform="matrix(1 0 0 1 16 32)" d="M 0 0v 8 h 8 v -8 h -8 Z "/>
                        <path class="typst-shape" fill="#1a1a1a" fill-rule="nonzero" transform="matrix(1 0 0 1 24 32)" d="M 0 0v 8 h 8 v -8 h -8 Z "/>
                        <path class="typst-shape" fill="#1a1a1a" fill-rule="nonzero" transform="matrix(1 0 0 1 32 32)" d="M 0 0v 8 h 8 v -8 h -8 Z "/>
                        <path class="typst-shape" fill="#1a1a1a" fill-rule="nonzero" transform="matrix(1 0 0 1 40 32)" d="M 0 0v 8 h 8 v -8 h -8 Z "/>
                        <path class="typst-shape" fill="#1a1a1a" fill-rule="nonzero" transform="matrix(1 0 0 1 48 32)" d="M 0 0v 8 h 8 v -8 h -8 Z "/>
                        <path class="typst-shape" fill="#1a1a1a" fill-rule="nonzero" transform="matrix(1 0 0 1 56 32)" d="M 0 0v 8 h 8 v -8 h -8 Z "/>
                        <path class="typst-shape" fill="#000000" fill-rule="nonzero" transform="matrix(1 0 0 1 64 32)" d="M 0 0v 8 h 8 v -8 h -8 Z "/>
                        <path class="typst-shape" fill="#000000" fill-rule="nonzero" transform="matrix(1 0 0 1 72 32)" d="M 0 0v 8 h 8 v -8 h -8 Z "/>
                        <path class="typst-shape" fill="#000000" fill-rule="nonzero" transform="matrix(1 0 0 1 8 40)" d="M 0 0v 8 h 8 v -8 h -8 Z "/>
                        <path class="typst-shape" fill="#1a1a1a" fill-rule="nonzero" transform="matrix(1 0 0 1 16 40)" d="M 0 0v 8 h 8 v -8 h -8 Z "/>
                        <path class="typst-shape" fill="#e8b8a0" fill-rule="nonzero" transform="matrix(1 0 0 1 24 40)" d="M 0 0v 8 h 8 v -8 h -8 Z "/>
                        <path class="typst-shape" fill="#e8b8a0" fill-rule="nonzero" transform="matrix(1 0 0 1 32 40)" d="M 0 0v 8 h 8 v -8 h -8 Z "/>
                        <path class="typst-shape" fill="#e8b8a0" fill-rule="nonzero" transform="matrix(1 0 0 1 40 40)" d="M 0 0v 8 h 8 v -8 h -8 Z "/>
                        <path class="typst-shape" fill="#e8b8a0" fill-rule="nonzero" transform="matrix(1 0 0 1 48 40)" d="M 0 0v 8 h 8 v -8 h -8 Z "/>
                        <path class="typst-shape" fill="#e8b8a0" fill-rule="nonzero" transform="matrix(1 0 0 1 56 40)" d="M 0 0v 8 h 8 v -8 h -8 Z "/>
                        <path class="typst-shape" fill="#1a1a1a" fill-rule="nonzero" transform="matrix(1 0 0 1 64 40)" d="M 0 0v 8 h 8 v -8 h -8 Z "/>
                        <path class="typst-shape" fill="#000000" fill-rule="nonzero" transform="matrix(1 0 0 1 72 40)" d="M 0 0v 8 h 8 v -8 h -8 Z "/>
                        <path class="typst-shape" fill="#000000" fill-rule="nonzero" transform="matrix(1 0 0 1 8 48)" d="M 0 0v 8 h 8 v -8 h -8 Z "/>
                        <path class="typst-shape" fill="#e8b8a0" fill-rule="nonzero" transform="matrix(1 0 0 1 16 48)" d="M 0 0v 8 h 8 v -8 h -8 Z "/>
                        <path class="typst-shape" fill="#000000" fill-rule="nonzero" transform="matrix(1 0 0 1 24 48)" d="M 0 0v 8 h 8 v -8 h -8 Z "/>
                        <path class="typst-shape" fill="#e8b8a0" fill-rule="nonzero" transform="matrix(1 0 0 1 32 48)" d="M 0 0v 8 h 8 v -8 h -8 Z "/>
                        <path class="typst-shape" fill="#e8b8a0" fill-rule="nonzero" transform="matrix(1 0 0 1 40 48)" d="M 0 0v 8 h 8 v -8 h -8 Z "/>
                        <path class="typst-shape" fill="#e8b8a0" fill-rule="nonzero" transform="matrix(1 0 0 1 48 48)" d="M 0 0v 8 h 8 v -8 h -8 Z "/>
                        <path class="typst-shape" fill="#000000" fill-rule="nonzero" transform="matrix(1 0 0 1 56 48)" d="M 0 0v 8 h 8 v -8 h -8 Z "/>
                        <path class="typst-shape" fill="#e8b8a0" fill-rule="nonzero" transform="matrix(1 0 0 1 64 48)" d="M 0 0v 8 h 8 v -8 h -8 Z "/>
                        <path class="typst-shape" fill="#000000" fill-rule="nonzero" transform="matrix(1 0 0 1 72 48)" d="M 0 0v 8 h 8 v -8 h -8 Z "/>
                        <path class="typst-shape" fill="#000000" fill-rule="nonzero" transform="matrix(1 0 0 1 8 56)" d="M 0 0v 8 h 8 v -8 h -8 Z "/>
                        <path class="typst-shape" fill="#e8b8a0" fill-rule="nonzero" transform="matrix(1 0 0 1 16 56)" d="M 0 0v 8 h 8 v -8 h -8 Z "/>
                        <path class="typst-shape" fill="#e8b8a0" fill-rule="nonzero" transform="matrix(1 0 0 1 24 56)" d="M 0 0v 8 h 8 v -8 h -8 Z "/>
                        <path class="typst-shape" fill="#e8b8a0" fill-rule="nonzero" transform="matrix(1 0 0 1 32 56)" d="M 0 0v 8 h 8 v -8 h -8 Z "/>
                        <path class="typst-shape" fill="#e8b8a0" fill-rule="nonzero" transform="matrix(1 0 0 1 40 56)" d="M 0 0v 8 h 8 v -8 h -8 Z "/>
                        <path class="typst-shape" fill="#e8b8a0" fill-rule="nonzero" transform="matrix(1 0 0 1 48 56)" d="M 0 0v 8 h 8 v -8 h -8 Z "/>
                        <path class="typst-shape" fill="#e8b8a0" fill-rule="nonzero" transform="matrix(1 0 0 1 56 56)" d="M 0 0v 8 h 8 v -8 h -8 Z "/>
                        <path class="typst-shape" fill="#e8b8a0" fill-rule="nonzero" transform="matrix(1 0 0 1 64 56)" d="M 0 0v 8 h 8 v -8 h -8 Z "/>
                        <path class="typst-shape" fill="#000000" fill-rule="nonzero" transform="matrix(1 0 0 1 72 56)" d="M 0 0v 8 h 8 v -8 h -8 Z "/>
                        <path class="typst-shape" fill="#e8b8a0" fill-rule="nonzero" transform="matrix(1 0 0 1 16 64)" d="M 0 0v 8 h 8 v -8 h -8 Z "/>
                        <path class="typst-shape" fill="#e8b8a0" fill-rule="nonzero" transform="matrix(1 0 0 1 24 64)" d="M 0 0v 8 h 8 v -8 h -8 Z "/>
                        <path class="typst-shape" fill="#e8b8a0" fill-rule="nonzero" transform="matrix(1 0 0 1 32 64)" d="M 0 0v 8 h 8 v -8 h -8 Z "/>
                        <path class="typst-shape" fill="#e8b8a0" fill-rule="nonzero" transform="matrix(1 0 0 1 40 64)" d="M 0 0v 8 h 8 v -8 h -8 Z "/>
                        <path class="typst-shape" fill="#e8b8a0" fill-rule="nonzero" transform="matrix(1 0 0 1 48 64)" d="M 0 0v 8 h 8 v -8 h -8 Z "/>
                        <path class="typst-shape" fill="#e8b8a0" fill-rule="nonzero" transform="matrix(1 0 0 1 56 64)" d="M 0 0v 8 h 8 v -8 h -8 Z "/>
                        <path class="typst-shape" fill="#e8b8a0" fill-rule="nonzero" transform="matrix(1 0 0 1 64 64)" d="M 0 0v 8 h 8 v -8 h -8 Z "/>
                        <path class="typst-shape" fill="#e8b8a0" fill-rule="nonzero" transform="matrix(1 0 0 1 24 72)" d="M 0 0v 8 h 8 v -8 h -8 Z "/>
                        <path class="typst-shape" fill="#e8b8a0" fill-rule="nonzero" transform="matrix(1 0 0 1 32 72)" d="M 0 0v 8 h 8 v -8 h -8 Z "/>
                        <path class="typst-shape" fill="#e8b8a0" fill-rule="nonzero" transform="matrix(1 0 0 1 40 72)" d="M 0 0v 8 h 8 v -8 h -8 Z "/>
                        <path class="typst-shape" fill="#e8b8a0" fill-rule="nonzero" transform="matrix(1 0 0 1 48 72)" d="M 0 0v 8 h 8 v -8 h -8 Z "/>
                        <path class="typst-shape" fill="#e8b8a0" fill-rule="nonzero" transform="matrix(1 0 0 1 56 72)" d="M 0 0v 8 h 8 v -8 h -8 Z "/>
                        <path class="typst-shape" fill="#000000" fill-rule="nonzero" transform="matrix(1 0 0 1 8 80)" d="M 0 0v 8 h 8 v -8 h -8 Z "/>
                        <path class="typst-shape" fill="#000000" fill-rule="nonzero" transform="matrix(1 0 0 1 16 80)" d="M 0 0v 8 h 8 v -8 h -8 Z "/>
                        <path class="typst-shape" fill="#000000" fill-rule="nonzero" transform="matrix(1 0 0 1 24 80)" d="M 0 0v 8 h 8 v -8 h -8 Z "/>
                        <path class="typst-shape" fill="#000000" fill-rule="nonzero" transform="matrix(1 0 0 1 32 80)" d="M 0 0v 8 h 8 v -8 h -8 Z "/>
                        <path class="typst-shape" fill="#000000" fill-rule="nonzero" transform="matrix(1 0 0 1 40 80)" d="M 0 0v 8 h 8 v -8 h -8 Z "/>
                        <path class="typst-shape" fill="#000000" fill-rule="nonzero" transform="matrix(1 0 0 1 48 80)" d="M 0 0v 8 h 8 v -8 h -8 Z "/>
                        <path class="typst-shape" fill="#000000" fill-rule="nonzero" transform="matrix(1 0 0 1 56 80)" d="M 0 0v 8 h 8 v -8 h -8 Z "/>
                        <path class="typst-shape" fill="#000000" fill-rule="nonzero" transform="matrix(1 0 0 1 64 80)" d="M 0 0v 8 h 8 v -8 h -8 Z "/>
                        <path class="typst-shape" fill="#000000" fill-rule="nonzero" transform="matrix(1 0 0 1 72 80)" d="M 0 0v 8 h 8 v -8 h -8 Z "/>
                        <path class="typst-shape" fill="#e8b8a0" fill-rule="nonzero" transform="matrix(1 0 0 1 0 88)" d="M 0 0v 8 h 8 v -8 h -8 Z "/>
                        <path class="typst-shape" fill="#000000" fill-rule="nonzero" transform="matrix(1 0 0 1 8 88)" d="M 0 0v 8 h 8 v -8 h -8 Z "/>
                        <path class="typst-shape" fill="#000000" fill-rule="nonzero" transform="matrix(1 0 0 1 16 88)" d="M 0 0v 8 h 8 v -8 h -8 Z "/>
                        <path class="typst-shape" fill="#000000" fill-rule="nonzero" transform="matrix(1 0 0 1 24 88)" d="M 0 0v 8 h 8 v -8 h -8 Z "/>
                        <path class="typst-shape" fill="#555555" fill-rule="nonzero" transform="matrix(1 0 0 1 32 88)" d="M 0 0v 8 h 8 v -8 h -8 Z "/>
                        <path class="typst-shape" fill="#555555" fill-rule="nonzero" transform="matrix(1 0 0 1 40 88)" d="M 0 0v 8 h 8 v -8 h -8 Z "/>
                        <path class="typst-shape" fill="#000000" fill-rule="nonzero" transform="matrix(1 0 0 1 48 88)" d="M 0 0v 8 h 8 v -8 h -8 Z "/>
                        <path class="typst-shape" fill="#000000" fill-rule="nonzero" transform="matrix(1 0 0 1 56 88)" d="M 0 0v 8 h 8 v -8 h -8 Z "/>
                        <path class="typst-shape" fill="#000000" fill-rule="nonzero" transform="matrix(1 0 0 1 64 88)" d="M 0 0v 8 h 8 v -8 h -8 Z "/>
                        <path class="typst-shape" fill="#000000" fill-rule="nonzero" transform="matrix(1 0 0 1 72 88)" d="M 0 0v 8 h 8 v -8 h -8 Z "/>
                        <path class="typst-shape" fill="#e8b8a0" fill-rule="nonzero" transform="matrix(1 0 0 1 80 88)" d="M 0 0v 8 h 8 v -8 h -8 Z "/>
                        <path class="typst-shape" fill="#000000" fill-rule="nonzero" transform="matrix(1 0 0 1 8 96)" d="M 0 0v 8 h 8 v -8 h -8 Z "/>
                        <path class="typst-shape" fill="#000000" fill-rule="nonzero" transform="matrix(1 0 0 1 16 96)" d="M 0 0v 8 h 8 v -8 h -8 Z "/>
                        <path class="typst-shape" fill="#000000" fill-rule="nonzero" transform="matrix(1 0 0 1 24 96)" d="M 0 0v 8 h 8 v -8 h -8 Z "/>
                        <path class="typst-shape" fill="#555555" fill-rule="nonzero" transform="matrix(1 0 0 1 32 96)" d="M 0 0v 8 h 8 v -8 h -8 Z "/>
                        <path class="typst-shape" fill="#555555" fill-rule="nonzero" transform="matrix(1 0 0 1 40 96)" d="M 0 0v 8 h 8 v -8 h -8 Z "/>
                        <path class="typst-shape" fill="#000000" fill-rule="nonzero" transform="matrix(1 0 0 1 48 96)" d="M 0 0v 8 h 8 v -8 h -8 Z "/>
                        <path class="typst-shape" fill="#000000" fill-rule="nonzero" transform="matrix(1 0 0 1 56 96)" d="M 0 0v 8 h 8 v -8 h -8 Z "/>
                        <path class="typst-shape" fill="#000000" fill-rule="nonzero" transform="matrix(1 0 0 1 64 96)" d="M 0 0v 8 h 8 v -8 h -8 Z "/>
                        <path class="typst-shape" fill="#000000" fill-rule="nonzero" transform="matrix(1 0 0 1 72 96)" d="M 0 0v 8 h 8 v -8 h -8 Z "/>
                        <path class="typst-shape" fill="#000000" fill-rule="nonzero" transform="matrix(1 0 0 1 8 104)" d="M 0 0v 8 h 8 v -8 h -8 Z "/>
                        <path class="typst-shape" fill="#000000" fill-rule="nonzero" transform="matrix(1 0 0 1 16 104)" d="M 0 0v 8 h 8 v -8 h -8 Z "/>
                        <path class="typst-shape" fill="#000000" fill-rule="nonzero" transform="matrix(1 0 0 1 24 104)" d="M 0 0v 8 h 8 v -8 h -8 Z "/>
                        <path class="typst-shape" fill="#000000" fill-rule="nonzero" transform="matrix(1 0 0 1 32 104)" d="M 0 0v 8 h 8 v -8 h -8 Z "/>
                        <path class="typst-shape" fill="#000000" fill-rule="nonzero" transform="matrix(1 0 0 1 40 104)" d="M 0 0v 8 h 8 v -8 h -8 Z "/>
                        <path class="typst-shape" fill="#000000" fill-rule="nonzero" transform="matrix(1 0 0 1 48 104)" d="M 0 0v 8 h 8 v -8 h -8 Z "/>
                        <path class="typst-shape" fill="#000000" fill-rule="nonzero" transform="matrix(1 0 0 1 56 104)" d="M 0 0v 8 h 8 v -8 h -8 Z "/>
                        <path class="typst-shape" fill="#000000" fill-rule="nonzero" transform="matrix(1 0 0 1 64 104)" d="M 0 0v 8 h 8 v -8 h -8 Z "/>
                        <path class="typst-shape" fill="#000000" fill-rule="nonzero" transform="matrix(1 0 0 1 72 104)" d="M 0 0v 8 h 8 v -8 h -8 Z "/>
                        <path class="typst-shape" fill="#000000" fill-rule="nonzero" transform="matrix(1 0 0 1 16 112)" d="M 0 0v 8 h 8 v -8 h -8 Z "/>
                        <path class="typst-shape" fill="#000000" fill-rule="nonzero" transform="matrix(1 0 0 1 24 112)" d="M 0 0v 8 h 8 v -8 h -8 Z "/>
                        <path class="typst-shape" fill="#000000" fill-rule="nonzero" transform="matrix(1 0 0 1 32 112)" d="M 0 0v 8 h 8 v -8 h -8 Z "/>
                        <path class="typst-shape" fill="#000000" fill-rule="nonzero" transform="matrix(1 0 0 1 40 112)" d="M 0 0v 8 h 8 v -8 h -8 Z "/>
                        <path class="typst-shape" fill="#000000" fill-rule="nonzero" transform="matrix(1 0 0 1 48 112)" d="M 0 0v 8 h 8 v -8 h -8 Z "/>
                        <path class="typst-shape" fill="#000000" fill-rule="nonzero" transform="matrix(1 0 0 1 56 112)" d="M 0 0v 8 h 8 v -8 h -8 Z "/>
                        <path class="typst-shape" fill="#000000" fill-rule="nonzero" transform="matrix(1 0 0 1 64 112)" d="M 0 0v 8 h 8 v -8 h -8 Z "/>
                        <path class="typst-shape" fill="#000000" fill-rule="nonzero" transform="matrix(1 0 0 1 24 120)" d="M 0 0v 8 h 8 v -8 h -8 Z "/>
                        <path class="typst-shape" fill="#000000" fill-rule="nonzero" transform="matrix(1 0 0 1 32 120)" d="M 0 0v 8 h 8 v -8 h -8 Z "/>
                        <path class="typst-shape" fill="#000000" fill-rule="nonzero" transform="matrix(1 0 0 1 40 120)" d="M 0 0v 8 h 8 v -8 h -8 Z "/>
                        <path class="typst-shape" fill="#000000" fill-rule="nonzero" transform="matrix(1 0 0 1 48 120)" d="M 0 0v 8 h 8 v -8 h -8 Z "/>
                        <path class="typst-shape" fill="#000000" fill-rule="nonzero" transform="matrix(1 0 0 1 56 120)" d="M 0 0v 8 h 8 v -8 h -8 Z "/>
                    </g>
                </g>
            </g>
        </g>
    </g>
</svg>
