<svg class="typst-doc" viewBox="0 0 128 128" width="128pt" height="128pt" xmlns="http://www.w3.org/2000/svg" xmlns:xlink="http://www.w3.org/1999/xlink" xmlns:h5="http://www.w3.org/1999/xhtml">
    <g>
        <g class="typst-group" transform="matrix(1 0 0 1 28 0)">
            <g>
                <g class="typst-group">
                    <g>
                        <path class="typst-shape" fill="#283593" fill-rule="nonzero" transform="matrix(1 0 0 1 24 0)" d="M 0 0v 8 h 8 v -8 h -8 Z "/>
                        <path class="typst-shape" fill="#283593" fill-rule="nonzero" transform="matrix(1 0 0 1 32 0)" d="M 0 0v 8 h 8 v -8 h -8 Z "/>
                        <path class="typst-shape" fill="#283593" fill-rule="nonzero" transform="matrix(1 0 0 1 40 0)" d="M 0 0v 8 h 8 v -8 h -8 Z "/>
                        <path class="typst-shape" fill="#283593" fill-rule="nonzero" transform="matrix(1 0 0 1 16 8)" d="M 0 0v 8 h 8 v -8 h -8 Z "/>
                        <path class="typst-shape" fill="#283593" fill-rule="nonzero" transform="matrix(1 0 0 1 24 8)" d="M 0 0v 8 h 8 v -8 h -8 Z "/>
                        <path class="typst-shape" fill="#283593" fill-rule="nonzero" transform="matrix(1 0 0 1 32 8)" d="M 0 0v 8 h 8 v -8 h -8 Z "/>
                        <path class="typst-shape" fill="#283593" fill-rule="nonzero" transform="matrix(1 0 0 1 40 8)" d="M 0 0v 8 h 8 v -8 h -8 Z "/>
                        <path class="typst-shape" fill="#283593" fill-rule="nonzero" transform="matrix(1 0 0 1 48 8)" d="M 0 0v 8 h 8 v -8 h -8 Z "/>
                        <path class="typst-shape" fill="#283593" fill-rule="nonzero" transform="matrix(1 0 0 1 8 16)" d="M 0 0v 8 h 8 v -8 h -8 Z "/>
                        <path class="typst-shape" fill="#283593" fill-rule="nonzero" transform="matrix(1 0 0 1 16 16)" d="M 0 0v 8 h 8 v -8 h -8 Z "/>
                        <path class="typst-shape" fill="#283593" fill-rule="nonzero" transform="matrix(1 0 0 1 24 16)" d="M 0 0v 8 h 8 v -8 h -8 Z "/>
                        <path class="typst-shape" fill="#283593" fill-rule="nonzero" transform="matrix(1 0 0 1 32 16)" d="M 0 0v 8 h 8 v -8 h -8 Z "/>
                        <path class="typst-shape" fill="#283593" fill-rule="nonzero" transform="matrix(1 0 0 1 40 16)" d="M 0 0v 8 h 8 v -8 h -8 Z "/>
                        <path class="typst-shape" fill="#283593" fill-rule="nonzero" transform="matrix(1 0 0 1 48 16)" d="M 0 0v 8 h 8 v -8 h -8 Z "/>
                        <path class="typst-shape" fill="#283593" fill-rule="nonzero" transform="matrix(1 0 0 1 56 16)" d="M 0 0v 8 h 8 v -8 h -8 Z "/>
                        <path class="typst-shape" fill="#283593" fill-rule="nonzero" transform="matrix(1 0 0 1 8 24)" d="M 0 0v 8 h 8 v -8 h -8 Z "/>
                        <path class="typst-shape" fill="#283593" fill-rule="nonzero" transform="matrix(1 0 0 1 16 24)" d="M 0 0v 8 h 8 v -8 h -8 Z "/>
                        <path class="typst-shape" fill="#283593" fill-rule="nonzero" transform="matrix(1 0 0 1 24 24)" d="M 0 0v 8 h 8 v -8 h -8 Z "/>
                        <path class="typst-shape" fill="#283593" fill-rule="nonzero" transform="matrix(1 0 0 1 32 24)" d="M 0 0v 8 h 8 v -8 h -8 Z "/>
                        <path class="typst-shape" fill="#283593" fill-rule="nonzero" transform="matrix(1 0 0 1 40 24)" d="M 0 0v 8 h 8 v -8 h -8 Z "/>
                        <path class="typst-shape" fill="#283593" fill-rule="nonzero" transform="matrix(1 0 0 1 48 24)" d="M 0 0v 8 h 8 v -8 h -8 Z "/>
                        <path class="typst-shape" fill="#283593" fill-rule="nonzero" transform="matrix(1 0 0 1 56 24)" d="M 0 0v 8 h 8 v -8 h -8 Z "/>
                        <path class="typst-shape" fill="#00e5ff" fill-rule="nonzero" transform="matrix(1 0 0 1 8 32)" d="M 0 0v 8 h 8 v -8 h -8 Z "/>
                        <path class="typst-shape" fill="#1a237e" fill-rule="nonzero" transform="matrix(1 0 0 1 16 32)" d="M 0 0v 8 h 8 v -8 h -8 Z "/>
                        <path class="typst-shape" fill="#1a237e" fill-rule="nonzero" transform="matrix(1 0 0 1 24 32)" d="M 0 0v 8 h 8 v -8 h -8 Z "/>
                        <path class="typst-shape" fill="#1a237e" fill-rule="nonzero" transform="matrix(1 0 0 1 32 32)" d="M 0 0v 8 h 8 v -8 h -8 Z "/>
                        <path class="typst-shape" fill="#1a237e" fill-rule="nonzero" transform="matrix(1 0 0 1 40 32)" d="M 0 0v 8 h 8 v -8 h -8 Z "/>
                        <path class="typst-shape" fill="#1a237e" fill-rule="nonzero" transform="matrix(1 0 0 1 48 32)" d="M 0 0v 8 h 8 v -8 h -8 Z "/>
                        <path class="typst-shape" fill="#00e5ff" fill-rule="nonzero" transform="matrix(1 0 0 1 56 32)" d="M 0 0v 8 h 8 v -8 h -8 Z "/>
                        <path class="typst-shape" fill="#283593" fill-rule="nonzero" transform="matrix(1 0 0 1 8 40)" d="M 0 0v 8 h 8 v -8 h -8 Z "/>
                        <path class="typst-shape" fill="#00e5ff" fill-rule="nonzero" transform="matrix(1 0 0 1 16 40)" d="M 0 0v 8 h 8 v -8 h -8 Z "/>
                        <path class="typst-shape" fill="#1a237e" fill-rule="nonzero" transform="matrix(1 0 0 1 24 40)" d="M 0 0v 8 h 8 v -8 h -8 Z "/>
                        <path class="typst-shape" fill="#1a237e" fill-rule="nonzero" transform="matrix(1 0 0 1 32 40)" d="M 0 0v 8 h 8 v -8 h -8 Z "/>
                        <path class="typst-shape" fill="#1a237e" fill-rule="nonzero" transform="matrix(1 0 0 1 40 40)" d="M 0 0v 8 h 8 v -8 h -8 Z "/>
                        <path class="typst-shape" fill="#00e5ff" fill-rule="nonzero" transform="matrix(1 0 0 1 48 40)" d="M 0 0v 8 h 8 v -8 h -8 Z "/>
                        <path class="typst-shape" fill="#283593" fill-rule="nonzero" transform="matrix(1 0 0 1 56 40)" d="M 0 0v 8 h 8 v -8 h -8 Z "/>
                        <path class="typst-shape" fill="#283593" fill-rule="nonzero" transform="matrix(1 0 0 1 8 48)" d="M 0 0v 8 h 8 v -8 h -8 Z "/>
                        <path class="typst-shape" fill="#283593" fill-rule="nonzero" transform="matrix(1 0 0 1 16 48)" d="M 0 0v 8 h 8 v -8 h -8 Z "/>
                        <path class="typst-shape" fill="#1a237e" fill-rule="nonzero" transform="matrix(1 0 0 1 24 48)" d="M 0 0v 8 h 8 v -8 h -8 Z "/>
                        <path class="typst-shape" fill="#1a237e" fill-rule="nonzero" transform="matrix(1 0 0 1 32 48)" d="M 0 0v 8 h 8 v -8 h -8 Z "/>
                        <path class="typst-shape" fill="#1a237e" fill-rule="nonzero" transform="matrix(1 0 0 1 40 48)" d="M 0 0v 8 h 8 v -8 h -8 Z "/>
                        <path class="typst-shape" fill="#283593" fill-rule="nonzero" transform="matrix(1 0 0 1 48 48)" d="M 0 0v 8 h 8 v -8 h -8 Z "/>
                        <path class="typst-shape" fill="#283593" fill-rule="nonzero" transform="matrix(1 0 0 1 56 48)" d="M 0 0v 8 h 8 v -8 h -8 Z "/>
                        <path class="typst-shape" fill="#283593" fill-rule="nonzero" transform="matrix(1 0 0 1 16 56)" d="M 0 0v 8 h 8 v -8 h -8 Z "/>
                        <path class="typst-shape" fill="#283593" fill-rule="nonzero" transform="matrix(1 0 0 1 24 56)" d="M 0 0v 8 h 8 v -8 h -8 Z "/>
                        <path class="typst-shape" fill="#283593" fill-rule="nonzero" transform="matrix(1 0 0 1 32 56)" d="M 0 0v 8 h 8 v -8 h -8 Z "/>
                        <path class="typst-shape" fill="#283593" fill-rule="nonzero" transform="matrix(1 0 0 1 40 56)" d="M 0 0v 8 h 8 v -8 h -8 Z "/>
                        <path class="typst-shape" fill="#283593" fill-rule="nonzero" transform="matrix(1 0 0 1 48 56)" d="M 0 0v 8 h 8 v -8 h -8 Z "/>
                        <path class="typst-shape" fill="#1a237e" fill-rule="nonzero" transform="matrix(1 0 0 1 24 64)" d="M 0 0v 8 h 8 v -8 h -8 Z "/>
                        <path class="typst-shape" fill="#1a237e" fill-rule="nonzero" transform="matrix(1 0 0 1 32 64)" d="M 0 0v 8 h 8 v -8 h -8 Z "/>
                        <path class="typst-shape" fill="#1a237e" fill-rule="nonzero" transform="matrix(1 0 0 1 40 64)" d="M 0 0v 8 h 8 v -8 h -8 Z "/>
                        <path class="typst-shape" fill="#1565c0" fill-rule="nonzero" transform="matrix(1 0 0 1 8 72)" d="M 0 0v 8 h 8 v -8 h -8 Z "/>
                        <path class="typst-shape" fill="#1565c0" fill-rule="nonzero" transform="matrix(1 0 0 1 16 72)" d="M 0 0v 8 h 8 v -8 h -8 Z "/>
                        <path class="typst-shape" fill="#1565c0" fill-rule="nonzero" transform="matrix(1 0 0 1 24 72)" d="M 0 0v 8 h 8 v -8 h -8 Z "/>
                        <path class="typst-shape" fill="#00e5ff" fill-rule="nonzero" transform="matrix(1 0 0 1 32 72)" d="M 0 0v 8 h 8 v -8 h -8 Z "/>
                        <path class="typst-shape" fill="#1565c0" fill-rule="nonzero" transform="matrix(1 0 0 1 40 72)" d="M 0 0v 8 h 8 v -8 h -8 Z "/>
                        <path class="typst-shape" fill="#1565c0" fill-rule="nonzero" transform="matrix(1 0 0 1 48 72)" d="M 0 0v 8 h 8 v -8 h -8 Z "/>
                        <path class="typst-shape" fill="#1565c0" fill-rule="nonzero" transform="matrix(1 0 0 1 56 72)" d="M 0 0v 8 h 8 v -8 h -8 Z "/>
                        <path class="typst-shape" fill="#1a237e" fill-rule="nonzero" transform="matrix(1 0 0 1 0 80)" d="M 0 0v 8 h 8 v -8 h -8 Z "/>
                        <path class="typst-shape" fill="#1565c0" fill-rule="nonzero" transform="matrix(1 0 0 1 8 80)" d="M 0 0v 8 h 8 v -8 h -8 Z "/>
                        <path class="typst-shape" fill="#1565c0" fill-rule="nonzero" transform="matrix(1 0 0 1 16 80)" d="M 0 0v 8 h 8 v -8 h -8 Z "/>
                        <path class="typst-shape" fill="#1565c0" fill-rule="nonzero" transform="matrix(1 0 0 1 24 80)" d="M 0 0v 8 h 8 v -8 h -8 Z "/>
                        <path class="typst-shape" fill="#00e5ff" fill-rule="nonzero" transform="matrix(1 0 0 1 32 80)" d="M 0 0v 8 h 8 v -8 h -8 Z "/>
                        <path class="typst-shape" fill="#1565c0" fill-rule="nonzero" transform="matrix(1 0 0 1 40 80)" d="M 0 0v 8 h 8 v -8 h -8 Z "/>
                        <path class="typst-shape" fill="#1565c0" fill-rule="nonzero" transform="matrix(1 0 0 1 48 80)" d="M 0 0v 8 h 8 v -8 h -8 Z "/>
                        <path class="typst-shape" fill="#1565c0" fill-rule="nonzero" transform="matrix(1 0 0 1 56 80)" d="M 0 0v 8 h 8 v -8 h -8 Z "/>
                        <path class="typst-shape" fill="#1a237e" fill-rule="nonzero" transform="matrix(1 0 0 1 64 80)" d="M 0 0v 8 h 8 v -8 h -8 Z "/>
                        <path class="typst-shape" fill="#1565c0" fill-rule="nonzero" transform="matrix(1 0 0 1 8 88)" d="M 0 0v 8 h 8 v -8 h -8 Z "/>
                        <path class="typst-shape" fill="#1565c0" fill-rule="nonzero" transform="matrix(1 0 0 1 16 88)" d="M 0 0v 8 h 8 v -8 h -8 Z "/>
                        <path class="typst-shape" fill="#1565c0" fill-rule="nonzero" transform="matrix(1 0 0 1 24 88)" d="M 0 0v 8 h 8 v -8 h -8 Z "/>
                        <path class="typst-shape" fill="#1565c0" fill-rule="nonzero" transform="matrix(1 0 0 1 32 88)" d="M 0 0v 8 h 8 v -8 h -8 Z "/>
                        <path class="typst-shape" fill="#1565c0" fill-rule="nonzero" transform="matrix(1 0 0 1 40 88)" d="M 0 0v 8 h 8 v -8 h -8 Z "/>
                        <path class="typst-shape" fill="#1565c0" fill-rule="nonzero" transform="matrix(1 0 0 1 48 88)" d="M 0 0v 8 h 8 v -8 h -8 Z "/>
                        <path class="typst-shape" fill="#1565c0" fill-rule="nonzero" transform="matrix(1 0 0 1 56 88)" d="M 0 0v 8 h 8 v -8 h -8 Z "/>
                        <path class="typst-shape" fill="#1565c0" fill-rule="nonzero" transform="matrix(1 0 0 1 8 96)" d="M 0 0v 8 h 8 v -8 h -8 Z "/>
                        <path class="typst-shape" fill="#1565c0" fill-rule="nonzero" transform="matrix(1 0 0 1 16 96)" d="M 0 0v 8 h 8 v -8 h -8 Z "/>
                        <path class="typst-shape" fill="#1565c0" fill-rule="nonzero" transform="matrix(1 0 0 1 24 96)" d="M 0 0v 8 h 8 v -8 h -8 Z "/>
                        <path class="typst-shape" fill="#1565c0" fill-rule="nonzero" transform="matrix(1 0 0 1 32 96)" d="M 0 0v 8 h 8 v -8 h -8 Z "/>
                        <path class="typst-shape" fill="#1565c0" fill-rule="nonzero" transform="matrix(1 0 0 1 40 96)" d="M 0 0v 8 h 8 v -8 h -8 Z "/>
                        <path class="typst-shape" fill="#1565c0" fill-rule="nonzero" transform="matrix(1 0 0 1 48 96)" d="M 0 0v 8 h 8 v -8 h -8 Z "/>
                        <path class="typst-shape" fill="#1565c0" fill-rule="nonzero" transform="matrix(1 0 0 1 56 96)" d="M 0 0v 8 h 8 v -8 h -8 Z "/>
                        <path class="typst-shape" fill="#1565c0" fill-rule="nonzero" transform="matrix(1 0 0 1 16 104)" d="M 0 0v 8 h 8 v -8 h -8 Z "/>
                        <path class="typst-shape" fill="#1565c0" fill-rule="nonzero" transform="matrix(1 0 0 1 24 104)" d="M 0 0v 8 h 8 v -8 h -8 Z "/>
                        <path class="typst-shape" fill="#1565c0" fill-rule="nonzero" transform="matrix(1 0 0 1 32 104)" d="M 0 0v 8 h 8 v -8 h -8 Z "/>
                        <path class="typst-shape" fill="#1565c0" fill-rule="nonzero" transform="matrix(1 0 0 1 40 104)" d="M 0 0v 8 h 8 v -8 h -8 Z "/>
                        <path class="typst-shape" fill="#1565c0" fill-rule="nonzero" transform="matrix(1 0 0 1 48 104)" d="M 0 0v 8 h 8 v -8 h -8 Z "/>
                        <path class="typst-shape" fill="#1565c0" fill-rule="nonzero" transform="matrix(1 0 0 1 24 112)" d="M 0 0v 8 h 8 v -8 h -8 Z "/>
                        <path class="typst-shape" fill="#1565c0" fill-rule="nonzero" transform="matrix(1 0 0 1 32 112)" d="M 0 0v 8 h 8 v -8 h -8 Z "/>
                        <path class="typst-shape" fill="#1565c0" fill-rule="nonzero" transform="matrix(1 0 0 1 40 112)" d="M 0 0v 8 h 8 v -8 h -8 Z "/>
                        <path class="typst-shape" fill="#1565c0" fill-rule="nonzero" transform="matrix(1 0 0 1 32 120)" d="M 0 0v 8 h 8 v -8 h -8 Z "/>
                    </g>
                </g>
            </g>
        </g>
    </g>
</svg>
