<svg class="typst-doc" viewBox="0 0 128 128" width="128pt" height="128pt" xmlns="http://www.w3.org/2000/svg" xmlns:xlink="http://www.w3.org/1999/xlink" xmlns:h5="http://www.w3.org/1999/xhtml">
    <g>
        <g class="typst-group">
            <g>
                <path class="typst-shape" fill="#8b6914" fill-rule="nonzero" d="M 0 0m 32 0 h 8 v 8 h -8 Z m 8 0 h 8 v 8 h -8 Z m 32 0 h 8 v 8 h -8 Z m 8 0 h 8 v 8 h -8 Z m -48 8 h 8 v 8 h -8 Z m 16 0 h 8 v 8 h -8 Z m 8 0 h 8 v 8 h -8 Z m 8 0 h 8 v 8 h -8 Z m 16 0 h 8 v 8 h -8 Z m -48 8 h 8 v 8 h -8 Z m 8 0 h 8 v 8 h -8 Z m 8 0 h 8 v 8 h -8 Z m 8 0 h 8 v 8 h -8 Z m 8 0 h 8 v 8 h -8 Z m 8 0 h 8 v 8 h -8 Z m 8 0 h 8 v 8 h -8 Z m -56 8 h 8 v 8 h -8 Z m 8 0 h 8 v 8 h -8 Z m 8 0 h 8 v 8 h -8 Z m 8 0 h 8 v 8 h -8 Z m 8 0 h 8 v 8 h -8 Z m 8 0 h 8 v 8 h -8 Z m 8 0 h 8 v 8 h -8 Z m 8 0 h 8 v 8 h -8 Z m 8 0 h 8 v 8 h -8 Z m -64 8 h 8 v 8 h -8 Z m 8 0 h 8 v 8 h -8 Z m 16 0 h 8 v 8 h -8 Z m 8 0 h 8 v 8 h -8 Z m 8 0 h 8 v 8 h -8 Z m 16 0 h 8 v 8 h -8 Z m 8 0 h 8 v 8 h -8 Z m -64 8 h 8 v 8 h -8 Z m 8 0 h 8 v 8 h -8 Z m 8 0 h 8 v 8 h -8 Z m 32 0 h 8 v 8 h -8 Z m 8 0 h 8 v 8 h -8 Z m 8 0 h 8 v 8 h -8 Z m -56 8 h 8 v 8 h -8 Z m 8 0 h 8 v 8 h -8 Z m 32 0 h 8 v 8 h -8 Z m 8 0 h 8 v 8 h -8 Z m -40 8 h 8 v 8 h -8 Z m 8 0 h 8 v 8 h -8 Z m 8 0 h 8 v 8 h -8 Z m 8 0 h 8 v 8 h -8 Z m 8 0 h 8 v 8 h -8 Z m -24 8 h 8 v 8 h -8 Z m 8 0 h 8 v 8 h -8 Z m 8 0 h 8 v 8 h -8 Z m -40 16 h 8 v 8 h -8 Z m 64 0 h 8 v 8 h -8 Z "/>
                <path class="typst-shape" fill="#654321" fill-rule="nonzero" d="M 0 0m 40 8 h 8 v 8 h -8 Z m 32 0 h 8 v 8 h -8 Z m -16 40 h 8 v 8 h -8 Z "/>
                <path class="typst-shape" fill="#000000" fill-rule="nonzero" d="M 0 0m 40 32 h 8 v 8 h -8 Z m 32 0 h 8 v 8 h -8 Z "/>
                <path class="typst-shape" fill="#d2b48c" fill-rule="nonzero" d="M 0 0m 48 40 h 8 v 8 h -8 Z m 8 0 h 8 v 8 h -8 Z m 8 0 h 8 v 8 h -8 Z m -16 8 h 8 v 8 h -8 Z m 16 0 h 8 v 8 h -8 Z m -32 24 h 8 v 8 h -8 Z m 8 0 h 8 v 8 h -8 Z m 8 0 h 8 v 8 h -8 Z m 8 0 h 8 v 8 h -8 Z m 8 0 h 8 v 8 h -8 Z m 8 0 h 8 v 8 h -8 Z m 8 0 h 8 v 8 h -8 Z m -48 8 h 8 v 8 h -8 Z m 8 0 h 8 v 8 h -8 Z m 8 0 h 8 v 8 h -8 Z m 8 0 h 8 v 8 h -8 Z m 8 0 h 8 v 8 h -8 Z m 8 0 h 8 v 8 h -8 Z m 8 0 h 8 v 8 h -8 Z m -48 8 h 8 v 8 h -8 Z m 8 0 h 8 v 8 h -8 Z m 8 0 h 8 v 8 h -8 Z m 8 0 h 8 v 8 h -8 Z m 8 0 h 8 v 8 h -8 Z m 8 0 h 8 v 8 h -8 Z m 8 0 h 8 v 8 h -8 Z m -48 8 h 8 v 8 h -8 Z m 8 0 h 8 v 8 h -8 Z m 8 0 h 8 v 8 h -8 Z m 8 0 h 8 v 8 h -8 Z m 8 0 h 8 v 8 h -8 Z m 8 0 h 8 v 8 h -8 Z m 8 0 h 8 v 8 h -8 Z m -48 8 h 8 v 8 h -8 Z m 8 0 h 8 v 8 h -8 Z m 8 0 h 8 v 8 h -8 Z m 8 0 h 8 v 8 h -8 Z m 8 0 h 8 v 8 h -8 Z m 8 0 h 8 v 8 h -8 Z m 8 0 h 8 v 8 h -8 Z m -40 8 h 8 v 8 h -8 Z m 8 0 h 8 v 8 h -8 Z m 8 0 h 8 v 8 h -8 Z m 8 0 h 8 v 8 h -8 Z m 8 0 h 8 v 8 h -8 Z m -24 8 h 8 v 8 h -8 Z m 8 0 h 8 v 8 h -8 Z m 8 0 h 8 v 8 h -8 Z "/>
                <path class="typst-shape" fill="#000000" fill-rule="nonzero" d="M 0 0m 96 80 h 8 v 8 h -8 Z m 0 8 h 8 v 8 h -8 Z "/>
                <path class="typst-shape" fill="#e53935" fill-rule="nonzero" d="M 0 0m 96 96 h 8 v 8 h -8 Z m 8 0 h 8 v 8 h -8 Z m -8 8 h 8 v 8 h -8 Z m 8 0 h 8 v 8 h -8 Z m -8 8 h 8 v 8 h -8 Z m 8 0 h 8 v 8 h -8 Z "/>
            </g>
        </g>
    </g>
</svg>
