<svg class="typst-doc" viewBox="0 0 128 128" width="128pt" height="128pt" xmlns="http://www.w3.org/2000/svg" xmlns:xlink="http://www.w3.org/1999/xlink" xmlns:h5="http://www.w3.org/1999/xhtml">
    <g>
        <g class="typst-group">
            <g>
                <path class="typst-shape" fill="#00bcd4" fill-rule="nonzero" d="M 0 0m 40 0 h 8 v 8 h -8 Z m 8 0 h 8 v 8 h -8 Z m 8 0 h 8 v 8 h -8 Z m 8 0 h 8 v 8 h -8 Z m 8 0 h 8 v 8 h -8 Z m -40 8 h 8 v 8 h -8 Z m 8 0 h 8 v 8 h -8 Z m 8 0 h 8 v 8 h -8 Z m 8 0 h 8 v 8 h -8 Z m 8 0 h 8 v 8 h -8 Z m 8 0 h 8 v 8 h -8 Z m 8 0 h 8 v 8 h -8 Z m -56 8 h 8 v 8 h -8 Z m 8 0 h 8 v 8 h -8 Z m 8 0 h 8 v 8 h -8 Z m 8 0 h 8 v 8 h -8 Z m 8 0 h 8 v 8 h -8 Z m 8 0 h 8 v 8 h -8 Z m 8 0 h 8 v 8 h -8 Z m 8 0 h 8 v 8 h -8 Z m 8 0 h 8 v 8 h -8 Z m -72 8 h 8 v 8 h -8 Z m 8 0 h 8 v 8 h -8 Z m 8 0 h 8 v 8 h -8 Z m 8 0 h 8 v 8 h -8 Z m 8 0 h 8 v 8 h -8 Z m 8 0 h 8 v 8 h -8 Z m 8 0 h 8 v 8 h -8 Z m 8 0 h 8 v 8 h -8 Z m 8 0 h 8 v 8 h -8 Z m 8 0 h 8 v 8 h -8 Z m 8 0 h 8 v 8 h -8 Z m -80 8 h 8 v 8 h -8 Z m 8 0 h 8 v 8 h -8 Z m 8 0 h 8 v 8 h -8 Z m 8 0 h 8 v 8 h -8 Z m 8 0 h 8 v 8 h -8 Z m 8 0 h 8 v 8 h -8 Z m 8 0 h 8 v 8 h -8 Z m 8 0 h 8 v 8 h -8 Z m 8 0 h 8 v 8 h -8 Z m 8 0 h 8 v 8 h -8 Z m 8 0 h 8 v 8 h -8 Z m -80 8 h 8 v 8 h -8 Z m 8 0 h 8 v 8 h -8 Z m 8 0 h 8 v 8 h -8 Z m 8 0 h 8 v 8 h -8 Z m 8 0 h 8 v 8 h -8 Z m 24 0 h 8 v 8 h -8 Z m 8 0 h 8 v 8 h -8 Z m 8 0 h 8 v 8 h -8 Z m 8 0 h 8 v 8 h -8 Z m -80 8 h 8 v 8 h -8 Z m 8 0 h 8 v 8 h -8 Z m 8 0 h 8 v 8 h -8 Z m 8 0 h 8 v 8 h -8 Z m 8 0 h 8 v 8 h -8 Z m 24 0 h 8 v 8 h -8 Z m 8 0 h 8 v 8 h -8 Z m 8 0 h 8 v 8 h -8 Z m 8 0 h 8 v 8 h -8 Z m -72 8 h 8 v 8 h -8 Z m 8 0 h 8 v 8 h -8 Z m 8 0 h 8 v 8 h -8 Z m 8 0 h 8 v 8 h -8 Z m 8 0 h 8 v 8 h -8 Z m 8 0 h 8 v 8 h -8 Z m 8 0 h 8 v 8 h -8 Z m 8 0 h 8 v 8 h -8 Z m 8 0 h 8 v 8 h -8 Z m -56 8 h 8 v 8 h -8 Z m 8 0 h 8 v 8 h -8 Z m 8 0 h 8 v 8 h -8 Z m 8 0 h 8 v 8 h -8 Z m 8 0 h 8 v 8 h -8 Z m 8 0 h 8 v 8 h -8 Z m 8 0 h 8 v 8 h -8 Z "/>
                <path class="typst-shape" fill="#4caf50" fill-rule="nonzero" d="M 0 0m 56 40 h 8 v 8 h -8 Z m 8 0 h 8 v 8 h -8 Z m -8 8 h 8 v 8 h -8 Z m 8 0 h 8 v 8 h -8 Z "/>
                <path class="typst-shape" fill="#f0f0f0" fill-rule="nonzero" d="M 0 0m 48 72 h 8 v 8 h -8 Z m 8 0 h 8 v 8 h -8 Z m 8 0 h 8 v 8 h -8 Z m -40 16 h 8 v 8 h -8 Z m 64 0 h 8 v 8 h -8 Z "/>
                <path class="typst-shape" fill="#e0e0e0" fill-rule="nonzero" d="M 0 0m 32 80 h 8 v 8 h -8 Z m 8 0 h 8 v 8 h -8 Z m 8 0 h 8 v 8 h -8 Z m 8 0 h 8 v 8 h -8 Z m 8 0 h 8 v 8 h -8 Z m 8 0 h 8 v 8 h -8 Z m 8 0 h 8 v 8 h -8 Z m -48 8 h 8 v 8 h -8 Z m 8 0 h 8 v 8 h -8 Z m 8 0 h 8 v 8 h -8 Z m 16 0 h 8 v 8 h -8 Z m 8 0 h 8 v 8 h -8 Z m 8 0 h 8 v 8 h -8 Z m -48 8 h 8 v 8 h -8 Z m 8 0 h 8 v 8 h -8 Z m 8 0 h 8 v 8 h -8 Z m 8 0 h 8 v 8 h -8 Z m 8 0 h 8 v 8 h -8 Z m 8 0 h 8 v 8 h -8 Z m 8 0 h 8 v 8 h -8 Z m -48 8 h 8 v 8 h -8 Z m 8 0 h 8 v 8 h -8 Z m 8 0 h 8 v 8 h -8 Z m 8 0 h 8 v 8 h -8 Z m 8 0 h 8 v 8 h -8 Z m 8 0 h 8 v 8 h -8 Z m 8 0 h 8 v 8 h -8 Z m -40 8 h 8 v 8 h -8 Z m 8 0 h 8 v 8 h -8 Z m 8 0 h 8 v 8 h -8 Z m 8 0 h 8 v 8 h -8 Z m 8 0 h 8 v 8 h -8 Z m -24 8 h 8 v 8 h -8 Z m 8 0 h 8 v 8 h -8 Z m 8 0 h 8 v 8 h -8 Z "/>
                <path class="typst-shape" fill="#555555" fill-rule="nonzero" d="M 0 0m 56 88 h 8 v 8 h -8 Z "/>
            </g>
        </g>
    </g>
</svg>
